<?xml version="1.0" standalone="no"?>
<!DOCTYPE svg PUBLIC "-//W3C//DTD SVG 20010904//EN"
 "http://www.w3.org/TR/2001/REC-SVG-20010904/DTD/svg10.dtd">
<svg version="1.0" xmlns="http://www.w3.org/2000/svg"
 width="261.000000pt" height="261.000000pt" viewBox="0 0 261.000000 261.000000"
 preserveAspectRatio="xMidYMid meet">
<metadata>
Created by potrace 1.14, written by Peter Selinger 2001-2017
</metadata>
<g transform="translate(0.000000,261.000000) scale(0.100000,-0.100000)"
fill="#000000" stroke="none">
<path d="M882 2474 c-46 -19 -55 -65 -23 -105 17 -21 30 -25 112 -29 l94 -5
-1 -330 0 -330 -96 -150 c-52 -82 -167 -265 -255 -405 -88 -140 -208 -331
-267 -425 -60 -93 -115 -183 -123 -199 -20 -38 -19 -93 2 -116 33 -37 101 -41
555 -38 l435 3 0 60 c1 33 -1 65 -3 71 -2 8 -119 11 -403 11 -219 0 -402 2
-405 5 -4 4 221 371 286 468 6 8 104 164 219 347 l209 332 1 333 c0 183 0 341
0 351 1 16 19 17 225 17 l225 0 0 -350 0 -350 53 -80 53 -80 88 0 c68 0 86 3
81 13 -4 6 -34 51 -65 99 l-58 86 0 331 0 331 88 0 c71 0 92 4 109 18 32 28
35 67 7 100 l-23 27 -546 1 c-403 0 -553 -3 -574 -12z"/>
<path d="M420 2152 c-97 -8 -149 -78 -115 -158 28 -68 33 -69 382 -70 219 -1
313 2 314 10 4 44 0 208 -5 213 -6 6 -510 11 -576 5z"/>
<path d="M259 1687 c-39 -10 -56 -26 -73 -69 -15 -39 -15 -44 2 -84 26 -62 48
-67 320 -68 134 -1 247 1 251 4 4 3 7 54 7 115 l-1 110 -237 0 c-130 0 -251
-3 -269 -8z"/>
<path d="M1993 1428 c-140 -73 -302 -158 -332 -176 l-30 -17 21 -35 c12 -19
23 -37 24 -39 2 -2 186 92 352 180 l43 23 102 -52 c109 -55 259 -134 266 -139
3 -2 5 -100 5 -218 l0 -215 50 0 51 0 -1 237 -1 237 -26 20 c-15 12 -57 37
-94 56 -38 19 -124 64 -193 100 -69 36 -133 69 -142 73 -11 4 -47 -9 -95 -35z"/>
<path d="M973 956 c-100 -161 -185 -299 -188 -308 -5 -12 28 -14 244 -14 l250
0 -1 139 c-1 109 2 141 13 148 8 4 66 41 129 82 l115 74 1 87 2 86 -192 0
-191 -1 -182 -293z"/>
<path d="M121 1223 c-83 -40 -78 -172 8 -204 18 -7 273 -13 384 -10 15 1 17
13 17 115 l0 113 -188 1 c-151 0 -194 -3 -221 -15z"/>
<path d="M1742 1060 c-41 -22 -135 -72 -210 -111 -76 -39 -145 -79 -155 -89
-17 -16 -19 -37 -19 -259 0 -217 2 -244 18 -262 9 -10 20 -19 24 -19 3 0 51
-24 106 -53 54 -29 148 -79 208 -111 l108 -58 92 46 c148 74 360 187 371 197
10 10 17 480 7 506 -2 7 -32 28 -65 46 -119 66 -394 207 -403 207 -5 0 -42
-18 -82 -40z m420 -237 c15 -8 29 -22 31 -31 3 -9 5 -102 4 -207 l0 -190 -56
-27 c-31 -15 -114 -59 -186 -97 l-130 -70 -40 23 c-46 26 -269 145 -302 160
-26 12 -24 -1 -25 261 0 87 4 161 8 162 5 2 88 46 184 97 l175 94 155 -81 c85
-44 167 -87 182 -94z"/>
</g>
</svg>
